<?xml version="1.0" standalone="no"?><!DOCTYPE svg PUBLIC "-//W3C//DTD SVG 1.1//EN" "http://www.w3.org/Graphics/SVG/1.1/DTD/svg11.dtd"><svg t="1594700656283" class="icon" viewBox="0 0 1408 1024" version="1.1" xmlns="http://www.w3.org/2000/svg" p-id="1082" xmlns:xlink="http://www.w3.org/1999/xlink" width="44" height="32"><defs><style type="text/css"></style></defs><path d="M1067.12024157 859.61428833H519.62773744c-37.65821479 0-75.31642891-20.27750038-95.59392928-52.14214326L244.43309274 543.86464288c-14.48392845-20.27750038-14.48392845-46.348572 1e-8-63.72928576l179.60071541-263.6075022C447.20809449 184.66321205 481.96952332 164.38571167 519.62773744 164.38571167H1067.12024157c63.72928642 0 115.87142966 52.14214326 115.87142967 115.87142966v463.48571734c0 63.72928642-52.14214326 115.87142966-115.87142967 115.87142966zM519.62773744 222.32142617c-20.27750038 0-37.65821479 8.6903572-49.24535729 26.07107162L293.67845003 512l179.60071609 263.60750221c11.58714316 14.48392845 28.96785758 26.07107163 49.24535728 26.07107162H1067.12024157c31.86464288 0 57.9357145-26.07107163 57.93571517-57.93571516V280.25714133c0-31.86464288-26.07107163-57.9357145-57.93571517-57.93571516H519.62773744z" fill="#515151" p-id="1083"></path><path d="M948.35202662 367.16071342L806.40952533 509.10321404l141.94250129 141.94250129-34.76142884 34.76142884-141.94250129-141.94250129-139.04571533 139.04571533-34.76142883-34.76142883 141.94250129-141.94250063L597.84095233 367.16071342 632.60238116 332.39928459l141.94250129 141.94250062 141.94250129-141.94250062L948.35202662 367.16071342z" fill="#515151" p-id="1084"></path></svg>