<?xml version="1.0" standalone="no"?><!DOCTYPE svg PUBLIC "-//W3C//DTD SVG 1.1//EN" "http://www.w3.org/Graphics/SVG/1.1/DTD/svg11.dtd"><svg t="1594272055471" class="icon" viewBox="0 0 1024 1024" version="1.1" xmlns="http://www.w3.org/2000/svg" p-id="1051" xmlns:xlink="http://www.w3.org/1999/xlink" width="32" height="32"><defs><style type="text/css"></style></defs><path d="M705.28802825 433.20742798c0-8.90761614-7.38680363-16.29441978-15.78748228-16.29441977H302.417552c-8.40067864 0-15.78748226 7.38680363-15.78748227 16.29441976s7.38680363 16.29441978 15.78748227 16.29441978h387.08299398c8.40067864 0 15.78748226-7.38680363 15.78748226-16.29441978z m-1e-8-1e-8" fill="#515151" p-id="1052"></path><path d="M511.49306249 821.88365413H189.51532793c-8.90761614 0-15.78748226-6.80744648-15.78748226-16.29441978v-615.56696892C173.80026531 181.11464929 180.60771179 173.80026531 190.02226543 173.80026531H802.40277004c8.90761614 0 16.29441978 7.38680363 16.29441978 16.29441978v327.19194888c0 8.90761614 7.38680363 16.29441978 16.29441975 16.29441976s16.29441978-7.38680363 16.29441978-16.29441976V190.02226543c0-26.79526807-21.50863409-48.81083965-48.30390216-48.81083965H189.51532793C162.72005986 141.21142578 141.21142578 162.72005986 141.21142578 189.51532793v616.07390643c0 26.79526807 21.50863409 48.30390216 48.30390216 48.30390214h321.97773455c8.90761614 0 16.29441978-7.38680363 16.29441976-16.29441977s-7.38680363-15.71506263-16.29441975-15.7150626z m0-1e-8" fill="#515151" p-id="1053"></path><path d="M689.50054598 287.20942688H302.417552c-8.40067864 0-15.78748226 7.38680363-15.78748227 16.29441978s7.38680363 16.29441978 15.78748227 16.29441975h387.08299398c8.40067864 0 15.78748226-7.38680363 15.78748226-16.29441976s-6.80744648-16.29441978-15.78748227-16.29441977zM302.99690914 546.68900919c-8.90761614 0-16.29441978 7.38680363-16.29441977 16.29441977s7.38680363 16.29441978 16.29441977 16.29441976h160.19225121c8.90761614 0 16.29441978-7.38680363 16.29441977-16.29441976s-7.38680363-16.29441978-16.29441977-16.29441977H302.99690914zM697.39428711 509.89983034c-102.90831328 0-185.39428711 82.99291133-185.39428711 186.40816212 0 103.48767042 82.48597384 186.48058177 185.39428711 186.48058176s185.39428711-82.99291133 185.39428711-186.48058177c0-103.41525078-82.48597384-186.40816211-185.39428711-186.4081621z m0 28.89543773c28.89543773 0 57.79087544 8.40067864 82.48597384 24.69509839h-12.60101796L697.39428711 679.50663519 627.50933123 563.41794682h-12.60101796c24.6950984-12.02166081 53.59053611-24.62267876 82.48597384-24.62267875z m0 310.89752912c-86.68631316 0-156.49884939-70.39189339-156.49884939-157.58514405 0-45.69679499 20.49475909-90.88665248 53.59053612-116.08868837l74.0852952 116.08868837h-57.79087544v28.89543772h69.88495589v20.49475908h-69.88495589v28.89543771h69.88495589v45.69679499h33.09577702v-45.69679499h69.88495589v-28.89543771h-69.88495589v-20.49475908h69.88495589v-28.89543772h-57.79087544l74.01287556-116.08868837c33.09577703 28.89543773 53.59053611 70.39189339 53.59053612 116.08868837-3.76582146 90.88665248-69.95737553 157.58514404-156.06433153 157.58514404z m0-1e-8" fill="#515151" p-id="1054"></path></svg>