<?xml version="1.0" standalone="no"?><!DOCTYPE svg PUBLIC "-//W3C//DTD SVG 1.1//EN" "http://www.w3.org/Graphics/SVG/1.1/DTD/svg11.dtd"><svg t="1594270551071" class="icon" viewBox="0 0 1024 1024" version="1.1" xmlns="http://www.w3.org/2000/svg" p-id="14435" xmlns:xlink="http://www.w3.org/1999/xlink" width="32" height="32"><defs><style type="text/css"></style></defs><path d="M239.145907 596.999288c-14.303203 0-25.964413 11.570107-25.964412 25.964413v219.103203c0 14.303203 11.570107 25.964413 25.964412 25.964413 14.303203 0 25.964413-11.570107 25.964413-25.964413V622.963701c0-14.303203-11.66121-25.964413-25.964413-25.964413zM437.386477 459.433452c-14.303203 0-25.964413 11.570107-25.964413 25.964413v356.669039c0 14.303203 11.570107 25.964413 25.964413 25.964413s25.964413-11.570107 25.964413-25.964413V485.397865c0-14.394306-11.66121-25.964413-25.964413-25.964413zM632.802847 555.638434c-14.303203 0-25.964413 11.570107-25.964413 25.964413v260.464057c0 14.303203 11.570107 25.964413 25.964413 25.964413S658.676157 856.370107 658.676157 842.066904V581.602847c0-14.394306-11.570107-25.964413-25.87331-25.964413zM828.128114 403.587189c-14.303203 0-25.964413 11.570107-25.964413 25.964412v412.606406c0 14.303203 11.570107 25.964413 25.964413 25.964413s25.964413-11.570107 25.964413-25.964413v-412.697509c0-14.303203-11.570107-25.87331-25.964413-25.873309z" fill="#515151" p-id="14436"></path><path d="M627.609964 440.119573l150.958008-169.087545 45.733807 44.913879c9.930249 9.65694 26.602135 2.733096 26.602136-11.11459V173.278292c0-8.745907-7.197153-15.760854-15.943061-15.578648l-131.553025 2.459787c-13.847687 0.27331-20.498221 17.036299-10.659075 26.784341l48.740214 47.829182-134.103915 150.138078-135.288256-137.292527c-9.930249-10.021352-25.964413-10.385765-36.259075-0.637722l-257.822064 242.790036c-10.385765 9.839146-10.932384 26.237722-1.093238 36.623487 5.101779 5.375089 12.025623 8.199288 18.858363 8.199288 6.377224 0 12.754448-2.368683 17.765124-7.014946l239.328114-225.389324 136.837011 138.932384c5.010676 5.101779 12.116726 7.834875 19.131673 7.743772 7.288256-0.27331 14.029893-3.370819 18.767259-8.745907z" fill="#515151" p-id="14437"></path></svg>